<svg height="512" viewBox="0 0 64 64" width="512" xmlns="http://www.w3.org/2000/svg"><g id="Line"><path d="m50 60.59a22 22 0 0 1 -20 0v-2.59a10 10 0 0 1 20 0zm-10-41.59a22 22 0 0 0 -12 40.42v-1.42a12 12 0 0 1 7.27-11 11.5 11.5 0 1 1 9.46 0 12 12 0 0 1 7.27 11v1.42a22 22 0 0 0 -12-40.42zm9.5 17.5a9.5 9.5 0 1 0 -9.5 9.5 9.51 9.51 0 0 0 9.5-9.5z" fill="#c4a2fc"/><path d="m49 1h-44a3 3 0 0 0 -3 3v44a3 3 0 0 0 3 3h44a3 3 0 0 0 3-3v-44a3 3 0 0 0 -3-3zm-38.95 48a17 17 0 0 1 33.95 0zm40-1a1 1 0 0 1 -1 1h-3.05a19 19 0 0 0 -13.58-17.2 13 13 0 1 0 -10.84 0 19 19 0 0 0 -13.53 17.2h-3.05a1 1 0 0 1 -1-1v-44a1 1 0 0 1 1-1h44a1 1 0 0 1 1 1zm-23.05-17a11 11 0 1 1 11-11 11 11 0 0 1 -11 11z" fill="#151a6a"/></g></svg>